{
  "accessors": [
    {
      "bufferView": 0,
      "byteOffset": 0,
      "componentType": 5125,
      "normalized": false,
      "count": 15060,
      "type": "SCALAR",
      "max": [
        3009
      ],
      "min": [
        0
      ]
    },
    {
      "bufferView": 1,
      "byteOffset": 0,
      "componentType": 5126,
      "normalized": false,
      "count": 3010,
      "type": "VEC3",
      "max": [
        0.47127777338027954,
        0.5213472843170166,
        0.0
      ],
      "min": [
        -0.5287222266197205,
        -0.4431917369365692,
        0.0
      ]
    }
  ],
  "asset": {
    "generator": "pygltflib@v1.16.2",
    "version": "2.0"
  },
  "bufferViews": [
    {
      "buffer": 0,
      "byteOffset": 0,
      "byteLength": 60240,
      "target": 34963
    },
    {
      "buffer": 0,
      "byteOffset": 60240,
      "byteLength": 36120,
      "target": 34962
    }
  ],
  "buffers": [
    {
      "uri": "data:application/octet_stream;base64,",
      "byteLength": 96360
    }
  ],
  "meshes": [
    {
      "primitives": [
        {
          "attributes": {
            "POSITION": 1
          },
          "indices": 0,
          "mode": 4
        }
      ]
    }
  ],
  "nodes": [
    {
      "mesh": 0,
      "name": "subject"
    }
  ],
  "scene": 0,
  "scenes": [
    {
      "nodes": [
        0
      ]
    }
  ]
}